<svg width="25" height="24" viewBox="0 0 25 24" fill="none" xmlns="http://www.w3.org/2000/svg">
<g id="5 1778397775" clip-path="url(#clip0_2187_12838)">
<path id="Vector" d="M15.74 15.6001H18.38V17.2801C18.02 17.0401 17.78 17.0401 17.54 17.0401C17.18 16.8001 16.82 16.6801 16.34 16.6801C16.22 16.6801 15.98 16.6801 15.86 16.8001V16.6801C15.86 16.4401 15.86 16.2001 15.86 15.9601C15.86 15.8401 15.74 15.7201 15.74 15.6001ZM18.38 19.2001C18.38 18.9601 18.26 18.7201 18.02 18.6001C17.9 18.4801 17.66 18.3601 17.42 18.3601C17.3 18.3601 17.18 18.3601 17.18 18.3601C16.94 18.0001 16.7 17.8801 16.46 17.8801C16.34 17.8801 16.34 17.8801 16.22 17.8801C16.1 17.8801 15.98 18.0001 15.86 18.1201C15.74 18.0001 15.62 18.0001 15.5 17.8801C15.38 17.8801 15.38 17.8801 15.26 17.8801C15.26 17.8801 15.26 17.8801 15.14 17.8801H15.02C14.9 17.8801 14.9 17.8801 14.78 17.8801C14.66 17.8801 14.66 18.0001 14.54 18.0001C14.54 18.0001 14.54 18.0001 14.54 17.8801C14.54 17.5201 14.54 17.1601 14.54 16.9201C14.54 16.5601 14.54 16.3201 14.54 15.9601C14.54 15.8401 14.54 15.7201 14.42 15.7201C14.42 15.7201 14.42 15.6001 14.3 15.6001C14.3 15.4801 14.18 15.4801 14.06 15.4801C13.82 15.3601 13.58 15.3601 13.34 15.4801C13.22 15.4801 13.22 15.6001 13.22 15.6001C13.22 15.6001 13.1 15.7201 13.1 15.8401C13.1 15.9601 13.1 15.9601 13.1 16.0801C13.1 17.7601 13.1 19.3201 13.1 21.0001C13.1 21.0001 13.1 21.0001 13.1 21.1201C12.98 21.0001 12.86 21.0001 12.62 20.8801C12.26 20.7601 11.78 20.5201 11.42 20.4001C11.3 20.2801 11.06 20.2801 10.94 20.2801C10.82 20.2801 10.7 20.2801 10.58 20.2801C10.46 20.2801 10.34 20.4001 10.22 20.5201C10.1 20.7601 10.22 21.0001 10.34 21.2401C10.46 21.3601 10.58 21.4801 10.7 21.4801C11.18 21.8401 11.66 22.2001 12.14 22.5601C12.62 22.9201 13.1 23.2801 13.46 23.5201C13.82 23.7601 14.18 23.8801 14.66 23.8801C15.26 23.8801 15.86 23.8801 16.46 23.8801C16.7 23.8801 16.94 23.8801 17.18 23.7601C17.78 23.4001 18.14 22.9201 18.26 22.2001C18.26 21.6001 18.26 20.8801 18.26 20.2801C18.26 19.9201 18.26 19.5601 18.26 19.2001C18.38 19.2001 18.38 19.2001 18.38 19.2001ZM23.9 0.120117H1.1C0.74 0.120117 0.5 0.360117 0.5 0.720117V19.8001C0.5 20.0401 0.74 20.4001 1.1 20.4001H9.26C9.26 20.2801 9.26 20.2801 9.38 20.1601C9.62 19.6801 9.98 19.3201 10.58 19.2001H1.7V1.32012H23.3V19.2001H19.58V19.3201V20.0401C19.58 20.1601 19.58 20.2801 19.58 20.4001H23.9C24.26 20.4001 24.5 20.1601 24.5 19.8001V0.720117C24.5 0.360117 24.14 0.120117 23.9 0.120117ZM10.34 13.2001V14.4001H13.1C13.34 14.2801 13.7 14.1601 14.06 14.1601C14.3 14.1601 14.66 14.2801 14.9 14.4001C14.9 14.4001 14.9 14.4001 15.02 14.4001H20.54C20.9 14.4001 21.14 14.1601 21.14 13.8001V3.12012C21.14 2.76012 20.9 2.52012 20.54 2.52012H4.94C4.58 2.52012 4.34 2.76012 4.34 3.12012V13.8001C4.34 14.1601 4.58 14.4001 4.94 14.4001H7.7V13.2001H5.42V9.60012H7.7V8.40012H5.42V3.84012H11.42V8.40012H10.94H10.22V9.60012H12.02H12.62V10.8001H13.82V9.72012H14.9V8.52012H12.62V3.72012H19.82V8.52012H17.42V9.72012H19.82V13.3201H10.34V13.2001ZM12.02 16.0801C12.02 15.9601 12.02 15.7201 12.02 15.6001H6.5V18.0001H12.02V16.0801Z" fill="#BB8067"/>
</g>
<defs>
<clipPath id="clip0_2187_12838">
<rect width="24" height="24" fill="white" transform="translate(0.5)"/>
</clipPath>
</defs>
</svg>
