<svg width="25" height="24" viewBox="0 0 25 24" fill="none" xmlns="http://www.w3.org/2000/svg">
<g id="1 71">
<g id="Group">
<g id="Group_2">
<path id="Vector" d="M14.7819 14.76C12.9819 14.76 11.0619 14.76 9.26188 14.76C8.78188 14.76 8.42188 14.4 8.42188 13.92C8.42188 12.24 8.42188 10.56 8.42188 8.88004C8.42188 8.40004 8.78188 8.04004 9.26188 8.04004C12.9819 8.04004 16.7019 8.04004 20.3019 8.04004C20.7819 8.04004 21.1419 8.40004 21.1419 8.88004C21.1419 10.56 21.1419 12.36 21.1419 14.04C21.1419 14.52 20.7819 14.88 20.3019 14.88C18.5019 14.76 16.5819 14.76 14.7819 14.76ZM13.5819 11.4C13.5819 11.88 13.5819 12.48 13.5819 12.96C13.5819 13.2 13.7019 13.32 13.9419 13.32C14.3019 13.32 14.6619 13.32 15.0219 13.32C15.6219 13.32 16.2219 12.84 16.3419 12.24C16.4619 11.64 16.4619 11.16 16.3419 10.56C16.2219 9.84004 15.7419 9.48004 15.0219 9.36004C14.6619 9.36004 14.3019 9.36004 13.9419 9.36004C13.8219 9.36004 13.5819 9.48004 13.5819 9.72004C13.5819 10.32 13.5819 10.92 13.5819 11.4ZM10.9419 12H11.0619C11.3019 12 11.6619 12 11.9019 12C12.3819 11.88 12.7419 11.64 12.8619 11.16C12.8619 11.04 12.8619 10.8 12.8619 10.68C12.8619 10.32 12.6219 9.96004 12.2619 9.72004C12.1419 9.60004 11.9019 9.48004 11.6619 9.48004C11.3019 9.48004 10.8219 9.48004 10.4619 9.48004C10.3419 9.48004 10.2219 9.60004 10.2219 9.72004C10.2219 10.56 10.2219 11.4 10.2219 12.24C10.2219 12.48 10.2219 12.84 10.2219 13.08C10.2219 13.32 10.3419 13.44 10.5819 13.44C10.8219 13.44 10.9419 13.32 10.9419 13.08C10.9419 12.72 10.9419 12.48 10.9419 12.12C10.9419 12.12 10.9419 12.12 10.9419 12ZM18.0219 10.08C18.3819 10.08 18.8619 10.08 19.2219 10.08C19.3419 10.08 19.3419 10.08 19.4619 10.08C19.7019 10.08 19.7019 9.96004 19.7019 9.72004C19.7019 9.60004 19.5819 9.36004 19.3419 9.36004C18.7419 9.36004 18.1419 9.36004 17.5419 9.36004C17.4219 9.48004 17.3019 9.60004 17.3019 9.72004C17.3019 10.8 17.3019 12 17.3019 13.08V13.2C17.4219 13.32 17.5419 13.44 17.7819 13.32C17.9019 13.32 18.0219 13.2 18.0219 12.96C18.0219 12.6 18.0219 12.12 18.0219 11.76C18.0219 11.64 18.0219 11.64 18.1419 11.64C18.3819 11.64 18.7419 11.64 18.9819 11.64C19.1019 11.64 19.2219 11.52 19.3419 11.4C19.3419 11.16 19.2219 11.04 19.1019 11.04C18.8619 11.04 18.6219 11.04 18.3819 11.04C18.2619 11.04 18.2619 11.04 18.1419 11.04C18.0219 10.8 18.0219 10.44 18.0219 10.08Z" fill="#BB8067"/>
<path id="Vector_2" d="M4.58172 16.8C8.54172 16.8 12.3817 16.8 16.3417 16.8C16.3417 16.56 16.3417 16.32 16.3417 16.2C16.8217 16.2 17.1817 16.2 17.5417 16.2V16.32C17.5417 16.68 17.5417 17.04 17.5417 17.4C17.5417 17.76 17.3017 18.12 16.8217 18.12C15.9817 18.12 15.1417 18.12 14.3017 18.12C10.8217 18.12 7.46172 18.12 3.98172 18.12H3.86172C3.50172 18.12 3.26172 17.88 3.26172 17.52C3.26172 16.2 3.26172 14.76 3.26172 13.44C3.26172 9.24 3.26172 5.04 3.26172 0.84C3.26172 0.48 3.38172 0.24 3.74172 0.24C3.86172 0 3.98172 0 4.10172 0C7.58172 0 10.9417 0 14.4217 0C14.6617 0 14.7817 0.12 14.9017 0.24C15.7417 1.08 16.5817 1.92 17.4217 2.76C17.5417 2.88 17.6617 3.12 17.6617 3.36C17.6617 4.44 17.6617 5.64 17.6617 6.72V6.84C17.3017 6.84 16.8217 6.84 16.4617 6.84C16.4617 5.76 16.4617 4.68 16.4617 3.6H16.3417C15.7417 3.6 15.1417 3.6 14.5417 3.6C14.3017 3.6 14.1817 3.48 14.1817 3.24C14.1817 2.64 14.1817 2.04 14.1817 1.44V1.32C10.9417 1.2 7.82172 1.2 4.58172 1.2C4.58172 6.36 4.58172 11.52 4.58172 16.8Z" fill="#BB8067"/>
<path id="Vector_3" d="M14.4219 10.0801C14.6619 10.0801 14.9019 10.0801 15.0219 10.0801C15.3819 10.0801 15.6219 10.4401 15.7419 10.8001C15.7419 11.1601 15.7419 11.5201 15.7419 11.8801C15.7419 12.3601 15.3819 12.6001 15.0219 12.6001C14.7819 12.6001 14.6619 12.6001 14.4219 12.6001C14.4219 11.8801 14.4219 11.0401 14.4219 10.0801Z" fill="#BB8067"/>
<path id="Vector_4" d="M10.9414 11.4001C10.9414 10.9201 10.9414 10.5601 10.9414 10.0801C11.1814 10.0801 11.4214 10.0801 11.6614 10.0801C11.9014 10.0801 12.1414 10.3201 12.1414 10.6801C12.1414 10.8001 12.1414 10.8001 12.1414 10.9201C12.1414 11.1601 11.9014 11.2801 11.7814 11.2801C11.4214 11.4001 11.1814 11.4001 10.9414 11.4001Z" fill="#BB8067"/>
</g>
<path id="Vector_5" d="M12.9805 20.4002V19.2002H8.18047V20.4002H6.98047L10.5805 24.0002L14.1805 20.4002H12.9805Z" fill="#BB8067"/>
</g>
</g>
</svg>
