<svg width="18" height="18" viewBox="0 0 18 18" fill="none" xmlns="http://www.w3.org/2000/svg">
<path d="M16.1898 17.5319L10.4718 11.8188C7.9304 13.6276 4.42694 13.1873 2.41214 10.8059C0.397335 8.42458 0.543351 4.89658 2.74805 2.68985C4.95216 0.482145 8.48035 0.33182 10.8643 2.34404C13.2482 4.35626 13.6924 7.8596 11.8861 10.4031L17.604 16.1161L16.1908 17.5309L16.1898 17.5319ZM6.99017 2.92962C5.09387 2.93019 3.45855 4.26215 3.0743 6.11911C2.69005 7.97607 3.66248 9.84764 5.40284 10.6007C7.14319 11.3538 9.17315 10.7813 10.2637 9.22999C11.3542 7.67864 11.2056 5.57476 9.90783 4.19212L10.5131 4.79181L9.83079 4.11216L9.81878 4.10017C9.07018 3.34773 8.05156 2.92621 6.99017 2.92962Z" fill="#BB8067"/>
</svg>
