<svg width="24" height="24" viewBox="0 0 24 24" fill="none" xmlns="http://www.w3.org/2000/svg">
<g id="4 38" clip-path="url(#clip0_2187_13066)">
<g id="Group">
<g id="Group_2">
<g id="Group_3">
<g id="Group_4">
<path id="SVGID_2_" d="M24 17.88C24 18 24 18.24 24 18.48C24 18.96 23.88 19.68 23.88 20.04C23.76 20.52 23.64 21 23.4 21.36C23.16 21.84 22.92 22.2 22.56 22.56C22.2 22.92 21.84 23.16 21.36 23.4C21 23.64 20.52 23.76 20.04 23.88C19.68 24 19.08 24 18.48 24C18.24 24 18 24 17.88 24H6.12C6 24 5.76 24 5.52 24C5.04 24 4.32 23.88 3.96 23.88C3.48 23.76 3 23.64 2.64 23.4C2.16 23.16 1.8 22.92 1.44 22.56C1.08 22.2 0.84 21.84 0.6 21.36C0.36 21 0.24 20.52 0.12 20.04C0.12 19.8 0 19.08 0 18.6C0 18.36 0 18.12 0 18V6.24C0 6 0 5.64 0 5.4C0 4.92 0.12 4.2 0.12 3.84C0.24 3.36 0.36 2.88 0.6 2.52C0.84 2.04 1.08 1.68 1.44 1.32C1.8 0.96 2.16 0.72 2.64 0.48C3 0.24 3.48 0.12 3.96 0C4.2 0.12 4.92 0 5.4 0C5.64 0 6 0 6.12 0H17.88C18 0 18.24 0 18.48 0C18.96 0 19.68 0.12 20.04 0.12C20.52 0.24 21 0.36 21.36 0.6C21.84 0.84 22.2 1.08 22.56 1.44C22.92 1.8 23.16 2.16 23.4 2.64C23.64 3 23.76 3.48 23.88 3.96C23.88 4.2 24 4.92 24 5.4C24 5.64 24 5.88 24 6V17.88Z" fill="#BB8067"/>
</g>
</g>
</g>
<g id="logo_1_">
<g id="Group_5">
<g id="Group_6">
<path id="Vector" d="M18.3596 5.64012C16.6796 3.96012 14.5196 3.12012 12.2396 3.12012C7.43961 3.12012 3.59961 6.96012 3.59961 11.7601C3.59961 13.3201 3.95961 14.7601 4.79961 16.0801L3.59961 20.5201L8.15961 19.3201C9.35961 20.0401 10.7996 20.4001 12.2396 20.4001C17.0396 20.4001 20.8796 16.5601 20.8796 11.7601C20.8796 9.48012 20.0396 7.32012 18.3596 5.64012ZM12.2396 18.9601C10.9196 18.9601 9.71961 18.6001 8.63961 18.0001L8.39961 17.7601L5.63961 18.4801L6.35961 15.8401L6.23961 15.6001C5.51961 14.5201 5.15961 13.2001 5.15961 11.7601C5.15961 7.80012 8.39961 4.56012 12.3596 4.56012C14.2796 4.56012 16.0796 5.28012 17.3996 6.60012C18.7196 7.92012 19.4396 9.72012 19.4396 11.6401C19.4396 15.7201 16.1996 18.9601 12.2396 18.9601ZM16.1996 13.5601C15.9596 13.4401 14.8796 12.9601 14.7596 12.8401C14.5196 12.7201 14.3996 12.7201 14.2796 12.9601C14.1596 13.2001 13.6796 13.6801 13.5596 13.8001C13.4396 13.9201 13.3196 13.9201 13.0796 13.8001C12.8396 13.6801 12.1196 13.4401 11.3996 12.7201C10.7996 12.1201 10.3196 11.4001 10.1996 11.2801C10.0796 11.0401 10.1996 10.9201 10.3196 10.8001C10.3196 10.8001 10.4396 10.5601 10.5596 10.4401C10.6796 10.3201 10.6796 10.3201 10.7996 10.0801C10.9196 9.96012 10.7996 9.84012 10.7996 9.72012C10.7996 9.60012 10.3196 8.52012 10.0796 8.16012C9.95961 7.80012 9.71961 7.80012 9.59961 7.80012C9.47961 7.80012 9.35961 7.80012 9.23961 7.80012C9.11961 7.80012 8.87961 7.80012 8.63961 8.04012C8.39961 8.28012 7.91961 8.76012 7.91961 9.84012C7.91961 10.9201 8.63961 11.8801 8.75961 12.1201C8.87961 12.2401 10.3196 14.4001 12.4796 15.3601C12.9596 15.6001 13.4396 15.7201 13.6796 15.8401C14.1596 15.9601 14.6396 15.9601 14.9996 15.9601C15.3596 15.8401 16.3196 15.4801 16.4396 14.8801C16.5596 14.4001 16.5596 13.9201 16.5596 13.8001C16.5596 13.6801 16.4396 13.6801 16.1996 13.5601Z" fill="white"/>
</g>
</g>
</g>
</g>
</g>
<defs>
<clipPath id="clip0_2187_13066">
<rect width="24" height="24" fill="white"/>
</clipPath>
</defs>
</svg>
