<svg width="18" height="16" viewBox="0 0 18 16" fill="none" xmlns="http://www.w3.org/2000/svg">
<path d="M9.0001 15.5C8.4626 15.0233 7.8551 14.5275 7.2126 14H7.20427C4.94177 12.15 2.3776 10.0567 1.2451 7.54832C0.873032 6.74976 0.675854 5.88093 0.666758 4.99999C0.664273 3.79123 1.14908 2.63248 2.01161 1.78563C2.87414 0.938782 4.04159 0.47532 5.2501 0.499991C6.23396 0.501545 7.19663 0.785892 8.02343 1.31916C8.38674 1.55497 8.71545 1.8402 9.0001 2.16666C9.28634 1.84149 9.61514 1.55641 9.9776 1.31916C10.804 0.785786 11.7665 0.501423 12.7501 0.499991C13.9586 0.47532 15.1261 0.938782 15.9886 1.78563C16.8511 2.63248 17.3359 3.79123 17.3334 4.99999C17.3249 5.88234 17.1277 6.75265 16.7551 7.55249C15.6226 10.0608 13.0593 12.1533 10.7968 14L10.7884 14.0067C10.1451 14.5308 9.53843 15.0267 9.00093 15.5067L9.0001 15.5ZM5.2501 2.16666C4.47386 2.15694 3.72516 2.45403 3.16677 2.99332C2.62875 3.5218 2.32806 4.24586 2.33336 4.99999C2.34287 5.64208 2.48829 6.27487 2.7601 6.85666C3.29469 7.93891 4.01602 8.91837 4.89093 9.74999C5.71677 10.5833 6.66677 11.39 7.48843 12.0683C7.71593 12.2558 7.9476 12.445 8.17927 12.6342L8.3251 12.7533C8.5476 12.935 8.7776 13.1233 9.0001 13.3083L9.01093 13.2983L9.01593 13.2942H9.02093L9.02843 13.2883H9.0326H9.03677L9.05177 13.2758L9.08593 13.2483L9.09177 13.2433L9.10093 13.2367H9.10593L9.11343 13.23L9.66677 12.7758L9.81177 12.6567C10.0459 12.4658 10.2776 12.2767 10.5051 12.0892C11.3268 11.4108 12.2776 10.605 13.1034 9.76749C13.9785 8.93629 14.6998 7.95709 15.2343 6.87499C15.511 6.28816 15.6585 5.64875 15.6668 4.99999C15.6702 4.24819 15.3697 3.5269 14.8334 2.99999C14.2761 2.45826 13.5273 2.15873 12.7501 2.16666C11.8017 2.1586 10.895 2.55613 10.2584 3.25916L9.0001 4.70916L7.74177 3.25916C7.10515 2.55613 6.1985 2.1586 5.2501 2.16666Z" fill="#BB8067"/>
</svg>
